<svg xmlns="http://www.w3.org/2000/svg" xmlns:xlink="http://www.w3.org/1999/xlink" version="1.1" x="0px" y="0px" viewBox="0 0 100 125" enable-background="new 0 0 100 100" xml:space="preserve"><g><path d="M92.805,15.413H76.974c-0.679,0-1.283,0.434-1.499,1.077l-3.016,8.952H7.196c-0.536,0-1.036,0.271-1.327,0.721   c-0.292,0.45-0.338,1.016-0.12,1.506l15.359,34.498c0.255,0.57,0.822,0.938,1.446,0.938h37.217l-2.025,6.02H24.96   c-0.874,0-1.583,0.707-1.583,1.582s0.709,1.582,1.583,1.582h33.922c0.679,0,1.283-0.434,1.499-1.076L78.11,18.579h14.694   c0.874,0,1.582-0.708,1.582-1.583C94.387,16.122,93.679,15.413,92.805,15.413z M23.582,59.939L9.635,28.608h61.758L60.838,59.939   H23.582z"/><path d="M27.2,74.266c-2.848,0-5.162,2.316-5.162,5.16c0,2.848,2.314,5.162,5.162,5.162c2.846,0,5.16-2.314,5.16-5.162   C32.359,76.582,30.045,74.266,27.2,74.266z M27.2,81.422c-1.1,0-1.995-0.896-1.995-1.996s0.895-1.994,1.995-1.994   c1.098,0,1.995,0.895,1.995,1.994S28.298,81.422,27.2,81.422z"/><path d="M56.21,74.266c-2.846,0-5.162,2.316-5.162,5.16c0,2.848,2.316,5.162,5.162,5.162s5.159-2.314,5.159-5.162   C61.369,76.582,59.056,74.266,56.21,74.266z M56.21,81.422c-1.101,0-1.995-0.896-1.995-1.996s0.895-1.994,1.995-1.994   c1.1,0,1.994,0.895,1.994,1.994S57.31,81.422,56.21,81.422z"/></g><text x="0" y="115" fill="#000000" font-size="5px" font-weight="bold" font-family="'Helvetica Neue', Helvetica, Arial-Unicode, Arial, Sans-serif">Created by Gimzy7</text><text x="0" y="120" fill="#000000" font-size="5px" font-weight="bold" font-family="'Helvetica Neue', Helvetica, Arial-Unicode, Arial, Sans-serif">from the Noun Project</text></svg>